<svg width="1386" height="1380" viewBox="0 0 1386 1380" fill="none" xmlns="http://www.w3.org/2000/svg">
<rect width="1386" height="1380" fill="#11AC87"/>
<path fill-rule="evenodd" clip-rule="evenodd" d="M356.28 196.955C284.603 193.809 215.478 205.276 153.362 231.461C221.565 91.2076 372.065 13.5378 549.856 41.8333C722.66 -30.8101 948.767 -6.18575 1177.6 100.697C1183.85 123.127 1194.56 146.447 1209.43 169.036L1357.84 100.124L1272.63 237.983C1290.92 252.411 1310 263.7 1328.83 271.542C1395.34 473.226 1404.26 666.111 1350.23 819.249C1376.01 978.718 1324.21 1130.37 1198.78 1213.06C1160.69 1238.17 1118.65 1255.04 1074.4 1264.17C1140.19 1204.94 1186.14 1124.04 1205.3 1028.92C1026.98 1173.58 751.322 1167.23 471.164 1037.44C468.784 1037.9 466.397 1038.34 464.005 1038.74C489.271 1108.33 528.311 1175.05 581.212 1234.56C634.603 1294.63 696.939 1341.53 763.784 1374.84C639.867 1396.28 501.538 1349.43 404.756 1240.55C349.043 1177.87 315.356 1103.93 303.632 1029.47C231.058 1009.1 161.578 966.978 105.865 904.302C9.08248 795.423 -21.229 652.556 14.5892 532.007C39.8309 602.295 79.1032 669.699 132.495 729.764C185.396 789.277 247.077 835.869 313.225 869.118C313.91 866.79 314.619 864.471 315.354 862.16C230.904 604.168 240.812 360.814 356.28 196.955Z" fill="#044E49"/>
</svg>
